<svg viewBox="0 0 600 600" xmlns="http://www.w3.org/2000/svg">
    <circle fill="#1a1a1a" style="stroke-linecap:round;stroke-linejoin:round;stroke-miterlimit:0;fill-opacity:1" r="300" cy="300" cx="300" />
    <path fill="white" d="M190.487 419.01h-84.624C88.938 419.01 75 405.149 75 388.317c0-27.723 0-68.317 6.969-97.03 11.947-48.515 46.792-108.91 109.513-141.584C244.248 121.98 296.018 120.99 333.85 120c17.92 0 31.858 13.861 31.858 30.693v73.267c1.991 37.624 31.858 45.545 45.796 45.545 37.832 0 54.757-3.96 84.624-.99 15.93.99 28.872 14.851 28.872 30.693v90.099C525 406.139 511.062 420 494.137 420h-89.602c-16.924 0-30.862-13.861-30.862-30.693 0-18.812 0-42.574-.996-53.465-1.991-22.773-11.947-65.347-64.712-65.347s-75.664 22.772-82.633 47.525c-2.987 12.871-3.982 44.554-3.982 69.307 0 16.831-13.938 30.693-30.863 30.693z" style="stroke-width:1" />
    <style>
        @media (prefers-color-scheme:dark) {
            circle {
                fill: white
            }

            path {
                fill: #1a1a1a
            }
        }
    </style>
</svg>
